# xmcd
#
# Track frame offsets: 
#        150
#        48736
#        98781
#        153892
#        189133
#        211396
#        238295
#        264318
#
# Disc length: 3899 seconds
#
# Revision: 1
# Processed by: cddbd v1.5.2PL0 Copyright (c) Steve Scherf et al.
# Submitted via: ExactAudioCopyFreeDBPlugin 1.0
#
DISCID=660f3908
DTITLE=Ben Webster, Buddy Rich, Benny Carter - Swing Time 062 - Ben We
DTITLE=bster, Buddy Rich, Benny Carter
DYEAR=2006
DGENRE=Jazz
TTITLE0=Buddy Rich Ensemble - Sunday
TTITLE1=Buddy Rich Ensemble - The Monster
TTITLE2=Buddy Rich Ensemble - Ballad Medley: linernotes
TTITLE3=Benny Carter - Old Fashioned Love
TTITLE4=Benny Carter - Blue Lou
TTITLE5=Benny Carter - A Walkin' Thing
TTITLE6=Benny Carter - I'm Coming Virginia
TTITLE7=Benny Carter - How Can You Lose
EXTD=YEAR: 2006
EXTT0=
EXTT1=
EXTT2=
EXTT3=
EXTT4=
EXTT5=
EXTT6=
EXTT7=
PLAYORDER=
